{
	"asset":{
		"generator":"Khronos glTF Blender I/O v3.6.27",
		"version":"2.0"
	},
	"extensionsUsed":[
		"KHR_materials_emissive_strength"
	],
	"scene":1,
	"scenes":[
		{
			"name":"ARROW CLICK",
			"nodes":[
				0,
				1
			]
		},
		{
			"name":"Scene",
			"nodes":[
				2,
				3,
				4
			]
		}
	],
	"nodes":[
		{
			"name":"Cube.004",
			"rotation":[
				0,
				-0.029195167124271393,
				0,
				0.999573826789856
			],
			"scale":[
				0.1318182796239853,
				0.049310922622680664,
				0.1318182796239853
			],
			"translation":[
				-0.1731703281402588,
				0.46825268864631653,
				1.0331119298934937
			]
		},
		{
			"mesh":0,
			"name":"Cube.005",
			"rotation":[
				0,
				-0.029195167124271393,
				0,
				0.999573826789856
			],
			"scale":[
				0.1318182796239853,
				0.049310922622680664,
				0.1318182796239853
			],
			"translation":[
				-0.1731703281402588,
				0.46825268864631653,
				1.0331119298934937
			]
		},
		{
			"mesh":1,
			"name":"TV.004",
			"rotation":[
				0.7071068286895752,
				0,
				0,
				0.7071068286895752
			],
			"scale":[
				1.521663784980774,
				1.521663784980774,
				1.521663784980774
			],
			"translation":[
				13.090473175048828,
				-4.0520830154418945,
				0.06093693524599075
			]
		},
		{
			"mesh":2,
			"name":"SCREEN.005",
			"rotation":[
				0.7071068286895752,
				0,
				0,
				0.7071068286895752
			],
			"scale":[
				1.5733168125152588,
				1.521663784980774,
				1.5612809658050537
			],
			"translation":[
				13.087905883789062,
				-3.251702308654785,
				0.41719868779182434
			]
		},
		{
			"mesh":3,
			"name":"Text.009",
			"rotation":[
				0.7071067690849304,
				0,
				0,
				0.7071068286895752
			],
			"scale":[
				0.7521423697471619,
				0.7521423697471619,
				0.7521423697471619
			],
			"translation":[
				12.808220863342285,
				-3.213897228240967,
				0.5483026504516602
			]
		}
	],
	"animations":[
		{
			"channels":[
				{
					"sampler":0,
					"target":{
						"node":0,
						"path":"translation"
					}
				}
			],
			"name":"Cube.002Action.002",
			"samplers":[
				{
					"input":16,
					"interpolation":"LINEAR",
					"output":17
				}
			]
		},
		{
			"channels":[
				{
					"sampler":0,
					"target":{
						"node":1,
						"path":"translation"
					}
				}
			],
			"name":"Cube.002Action.003",
			"samplers":[
				{
					"input":16,
					"interpolation":"LINEAR",
					"output":18
				}
			]
		}
	],
	"materials":[
		{
			"doubleSided":true,
			"emissiveFactor":[
				0.08932332467474347,
				1,
				0.022809921420033602
			],
			"extensions":{
				"KHR_materials_emissive_strength":{
					"emissiveStrength":2.2374885893295726
				}
			},
			"name":"Material.008",
			"pbrMetallicRoughness":{
				"baseColorFactor":[
					0,
					0,
					0,
					1
				]
			}
		},
		{
			"doubleSided":true,
			"emissiveFactor":[
				1,
				1,
				1
			],
			"emissiveTexture":{
				"index":0
			},
			"name":"Material.001",
			"normalTexture":{
				"index":1
			},
			"pbrMetallicRoughness":{
				"baseColorTexture":{
					"index":2
				},
				"metallicRoughnessTexture":{
					"index":3
				}
			}
		},
		{
			"doubleSided":true,
			"name":"TV SCREEN",
			"pbrMetallicRoughness":{
				"baseColorFactor":[
					0,
					0,
					0,
					1
				],
				"metallicFactor":0,
				"roughnessFactor":0
			}
		},
		{
			"doubleSided":true,
			"emissiveFactor":[
				1,
				1,
				1
			],
			"emissiveTexture":{
				"index":4
			},
			"extensions":{
				"KHR_materials_emissive_strength":{
					"emissiveStrength":2.799999952316284
				}
			},
			"name":"NEON GREEN",
			"pbrMetallicRoughness":{
				"baseColorFactor":[
					0,
					0,
					0,
					1
				]
			}
		}
	],
	"meshes":[
		{
			"name":"Cube.007",
			"primitives":[
				{
					"attributes":{
						"POSITION":0,
						"NORMAL":1,
						"TEXCOORD_0":2
					},
					"indices":3,
					"material":0
				}
			]
		},
		{
			"name":"SCREEN_Cube.002",
			"primitives":[
				{
					"attributes":{
						"POSITION":4,
						"NORMAL":5,
						"TEXCOORD_0":6
					},
					"indices":7,
					"material":1
				}
			]
		},
		{
			"name":"SCREEN_Cube.004",
			"primitives":[
				{
					"attributes":{
						"POSITION":8,
						"NORMAL":9,
						"TEXCOORD_0":10
					},
					"indices":11,
					"material":2
				}
			]
		},
		{
			"name":"Text.009",
			"primitives":[
				{
					"attributes":{
						"POSITION":12,
						"NORMAL":13,
						"TEXCOORD_0":14
					},
					"indices":15,
					"material":3
				}
			]
		}
	],
	"textures":[
		{
			"sampler":0,
			"source":0
		},
		{
			"sampler":0,
			"source":1
		},
		{
			"sampler":0,
			"source":2
		},
		{
			"sampler":0,
			"source":3
		},
		{
			"sampler":0,
			"source":4
		}
	],
	"images":[
		{
			"bufferView":8,
			"mimeType":"image/png",
			"name":"TV_COLOR__Emission"
		},
		{
			"bufferView":9,
			"mimeType":"image/png",
			"name":"TV_COLOR__Normal"
		},
		{
			"bufferView":10,
			"mimeType":"image/png",
			"name":"TV_COLOR__BaseColor.png-TV_COLOR__Alpha.png"
		},
		{
			"bufferView":11,
			"mimeType":"image/png",
			"name":"TV_COLOR__Metallic.png-TV_COLOR__Roughness.png"
		},
		{
			"bufferView":20,
			"mimeType":"image/png",
			"name":"TEXT"
		}
	],
	"accessors":[
		{
			"bufferView":0,
			"componentType":5126,
			"count":1240,
			"max":[
				3.4059457778930664,
				1,
				8.423583030700684
			],
			"min":[
				-3.4059457778930664,
				-1,
				-1.4556748867034912
			],
			"type":"VEC3"
		},
		{
			"bufferView":1,
			"componentType":5126,
			"count":1240,
			"type":"VEC3"
		},
		{
			"bufferView":2,
			"componentType":5126,
			"count":1240,
			"type":"VEC2"
		},
		{
			"bufferView":3,
			"componentType":5123,
			"count":6756,
			"type":"SCALAR"
		},
		{
			"bufferView":4,
			"componentType":5126,
			"count":13046,
			"max":[
				1.311911940574646,
				0.15880900621414185,
				0.4296390116214752
			],
			"min":[
				-1.311911940574646,
				-0.44745001196861267,
				-1.481619954109192
			],
			"type":"VEC3"
		},
		{
			"bufferView":5,
			"componentType":5126,
			"count":13046,
			"type":"VEC3"
		},
		{
			"bufferView":6,
			"componentType":5126,
			"count":13046,
			"type":"VEC2"
		},
		{
			"bufferView":7,
			"componentType":5123,
			"count":73728,
			"type":"SCALAR"
		},
		{
			"bufferView":12,
			"componentType":5126,
			"count":1089,
			"max":[
				1.0999722480773926,
				0.10138124227523804,
				0.8012464046478271
			],
			"min":[
				-1.0999720096588135,
				-0.15511274337768555,
				-0.8012465834617615
			],
			"type":"VEC3"
		},
		{
			"bufferView":13,
			"componentType":5126,
			"count":1089,
			"type":"VEC3"
		},
		{
			"bufferView":14,
			"componentType":5126,
			"count":1089,
			"type":"VEC2"
		},
		{
			"bufferView":15,
			"componentType":5123,
			"count":6144,
			"type":"SCALAR"
		},
		{
			"bufferView":16,
			"componentType":5126,
			"count":5191,
			"max":[
				2.5261831283569336,
				0.05000393092632294,
				0.4863327741622925
			],
			"min":[
				-1.736452579498291,
				-0.28107455372810364,
				-0.40008363127708435
			],
			"type":"VEC3"
		},
		{
			"bufferView":17,
			"componentType":5126,
			"count":5191,
			"type":"VEC3"
		},
		{
			"bufferView":18,
			"componentType":5126,
			"count":5191,
			"type":"VEC2"
		},
		{
			"bufferView":19,
			"componentType":5123,
			"count":7896,
			"type":"SCALAR"
		},
		{
			"bufferView":21,
			"componentType":5126,
			"count":50,
			"max":[
				2.0416666666666665
			],
			"min":[
				0
			],
			"type":"SCALAR"
		},
		{
			"bufferView":22,
			"componentType":5126,
			"count":50,
			"type":"VEC3"
		},
		{
			"bufferView":23,
			"componentType":5126,
			"count":50,
			"type":"VEC3"
		}
	],
	"bufferViews":[
		{
			"buffer":0,
			"byteLength":14880,
			"byteOffset":0,
			"target":34962
		},
		{
			"buffer":0,
			"byteLength":14880,
			"byteOffset":14880,
			"target":34962
		},
		{
			"buffer":0,
			"byteLength":9920,
			"byteOffset":29760,
			"target":34962
		},
		{
			"buffer":0,
			"byteLength":13512,
			"byteOffset":39680,
			"target":34963
		},
		{
			"buffer":0,
			"byteLength":156552,
			"byteOffset":53192,
			"target":34962
		},
		{
			"buffer":0,
			"byteLength":156552,
			"byteOffset":209744,
			"target":34962
		},
		{
			"buffer":0,
			"byteLength":104368,
			"byteOffset":366296,
			"target":34962
		},
		{
			"buffer":0,
			"byteLength":147456,
			"byteOffset":470664,
			"target":34963
		},
		{
			"buffer":0,
			"byteLength":3150,
			"byteOffset":618120
		},
		{
			"buffer":0,
			"byteLength":165873,
			"byteOffset":621272
		},
		{
			"buffer":0,
			"byteLength":972971,
			"byteOffset":787148
		},
		{
			"buffer":0,
			"byteLength":191924,
			"byteOffset":1760120
		},
		{
			"buffer":0,
			"byteLength":13068,
			"byteOffset":1952044,
			"target":34962
		},
		{
			"buffer":0,
			"byteLength":13068,
			"byteOffset":1965112,
			"target":34962
		},
		{
			"buffer":0,
			"byteLength":8712,
			"byteOffset":1978180,
			"target":34962
		},
		{
			"buffer":0,
			"byteLength":12288,
			"byteOffset":1986892,
			"target":34963
		},
		{
			"buffer":0,
			"byteLength":62292,
			"byteOffset":1999180,
			"target":34962
		},
		{
			"buffer":0,
			"byteLength":62292,
			"byteOffset":2061472,
			"target":34962
		},
		{
			"buffer":0,
			"byteLength":41528,
			"byteOffset":2123764,
			"target":34962
		},
		{
			"buffer":0,
			"byteLength":15792,
			"byteOffset":2165292,
			"target":34963
		},
		{
			"buffer":0,
			"byteLength":24498,
			"byteOffset":2181084
		},
		{
			"buffer":0,
			"byteLength":200,
			"byteOffset":2205584
		},
		{
			"buffer":0,
			"byteLength":600,
			"byteOffset":2205784
		},
		{
			"buffer":0,
			"byteLength":600,
			"byteOffset":2206384
		}
	],
	"samplers":[
		{
			"magFilter":9729,
			"minFilter":9987
		}
	],
	"buffers":[
		{
			"byteLength":2206984,
			"uri":"data:application/octet-stream;base64,"
		}
	]
}
