{
	"asset":{
		"generator":"Khronos glTF Blender I/O v3.6.27",
		"version":"2.0"
	},
	"scene":0,
	"scenes":[
		{
			"name":"Scene",
			"nodes":[
				0
			]
		}
	],
	"nodes":[
		{
			"mesh":0,
			"name":"MAD FACE G.001",
			"rotation":[
				0.7071042656898499,
				0.001876679016277194,
				0.0018766794819384813,
				0.7071043252944946
			],
			"scale":[
				0.7147985100746155,
				0.7147985100746155,
				0.7147985100746155
			],
			"translation":[
				-2.0592408180236816,
				1.4676711559295654,
				1.0782198905944824
			]
		}
	],
	"materials":[
		{
			"alphaMode":"BLEND",
			"doubleSided":true,
			"name":"MAD FACE G",
			"pbrMetallicRoughness":{
				"baseColorTexture":{
					"index":0
				},
				"metallicFactor":0,
				"roughnessFactor":0.5
			}
		},
		{
			"doubleSided":true,
			"emissiveFactor":[
				1,
				1,
				1
			],
			"emissiveTexture":{
				"index":1
			},
			"name":"P",
			"normalTexture":{
				"index":2
			},
			"pbrMetallicRoughness":{
				"baseColorTexture":{
					"index":3
				},
				"metallicRoughnessTexture":{
					"index":4
				}
			}
		},
		{
			"alphaMode":"BLEND",
			"doubleSided":true,
			"name":"NFS",
			"pbrMetallicRoughness":{
				"baseColorTexture":{
					"index":5
				},
				"metallicFactor":0,
				"roughnessFactor":0.5
			}
		},
		{
			"alphaMode":"BLEND",
			"doubleSided":true,
			"name":"BULDGE",
			"pbrMetallicRoughness":{
				"baseColorTexture":{
					"index":6
				},
				"metallicFactor":0,
				"roughnessFactor":0.5
			}
		}
	],
	"meshes":[
		{
			"name":"MAD FACE G.002",
			"primitives":[
				{
					"attributes":{
						"POSITION":0,
						"NORMAL":1,
						"TEXCOORD_0":2
					},
					"indices":3,
					"material":0
				},
				{
					"attributes":{
						"POSITION":4,
						"NORMAL":5,
						"TEXCOORD_0":6
					},
					"indices":7,
					"material":1
				},
				{
					"attributes":{
						"POSITION":8,
						"NORMAL":9,
						"TEXCOORD_0":10
					},
					"indices":11,
					"material":2
				},
				{
					"attributes":{
						"POSITION":12,
						"NORMAL":13,
						"TEXCOORD_0":14
					},
					"indices":11,
					"material":3
				}
			]
		}
	],
	"textures":[
		{
			"sampler":0,
			"source":0
		},
		{
			"sampler":1,
			"source":1
		},
		{
			"sampler":1,
			"source":2
		},
		{
			"sampler":1,
			"source":3
		},
		{
			"sampler":1,
			"source":4
		},
		{
			"sampler":0,
			"source":5
		},
		{
			"sampler":0,
			"source":6
		}
	],
	"images":[
		{
			"bufferView":4,
			"mimeType":"image/png",
			"name":"MAD FACE G"
		},
		{
			"bufferView":9,
			"mimeType":"image/png",
			"name":"None_Emission"
		},
		{
			"bufferView":10,
			"mimeType":"image/png",
			"name":"None_Normal"
		},
		{
			"bufferView":11,
			"mimeType":"image/png",
			"name":"None_BaseColor-None_Alpha"
		},
		{
			"bufferView":12,
			"mimeType":"image/png",
			"name":"None_Metallic-None_Roughness"
		},
		{
			"bufferView":17,
			"mimeType":"image/png",
			"name":"NFS"
		},
		{
			"bufferView":21,
			"mimeType":"image/png",
			"name":"BULDGE"
		}
	],
	"accessors":[
		{
			"bufferView":0,
			"componentType":5126,
			"count":50,
			"max":[
				6.71048641204834,
				0,
				0.7254863977432251
			],
			"min":[
				-0.5,
				-1.4612986376505432e-07,
				-1.0337468385696411
			],
			"type":"VEC3"
		},
		{
			"bufferView":1,
			"componentType":5126,
			"count":50,
			"type":"VEC3"
		},
		{
			"bufferView":2,
			"componentType":5126,
			"count":50,
			"type":"VEC2"
		},
		{
			"bufferView":3,
			"componentType":5123,
			"count":192,
			"type":"SCALAR"
		},
		{
			"bufferView":5,
			"componentType":5126,
			"count":120,
			"max":[
				7.129326343536377,
				-0.1094292402267456,
				2.0928330421447754
			],
			"min":[
				-1.372683048248291,
				-2.9074206352233887,
				-1.117667317390442
			],
			"type":"VEC3"
		},
		{
			"bufferView":6,
			"componentType":5126,
			"count":120,
			"type":"VEC3"
		},
		{
			"bufferView":7,
			"componentType":5126,
			"count":120,
			"type":"VEC2"
		},
		{
			"bufferView":8,
			"componentType":5123,
			"count":396,
			"type":"SCALAR"
		},
		{
			"bufferView":13,
			"componentType":5126,
			"count":25,
			"max":[
				6.465989112854004,
				0.06857943534851074,
				1.6059370040893555
			],
			"min":[
				-0.5363166332244873,
				0.06857943534851074,
				0.1698315143585205
			],
			"type":"VEC3"
		},
		{
			"bufferView":14,
			"componentType":5126,
			"count":25,
			"type":"VEC3"
		},
		{
			"bufferView":15,
			"componentType":5126,
			"count":25,
			"type":"VEC2"
		},
		{
			"bufferView":16,
			"componentType":5123,
			"count":96,
			"type":"SCALAR"
		},
		{
			"bufferView":18,
			"componentType":5126,
			"count":25,
			"max":[
				5.5358991622924805,
				-0.09556317329406738,
				0.554249107837677
			],
			"min":[
				0.24085688591003418,
				-0.09556317329406738,
				-0.649114191532135
			],
			"type":"VEC3"
		},
		{
			"bufferView":19,
			"componentType":5126,
			"count":25,
			"type":"VEC3"
		},
		{
			"bufferView":20,
			"componentType":5126,
			"count":25,
			"type":"VEC2"
		}
	],
	"bufferViews":[
		{
			"buffer":0,
			"byteLength":600,
			"byteOffset":0,
			"target":34962
		},
		{
			"buffer":0,
			"byteLength":600,
			"byteOffset":600,
			"target":34962
		},
		{
			"buffer":0,
			"byteLength":400,
			"byteOffset":1200,
			"target":34962
		},
		{
			"buffer":0,
			"byteLength":384,
			"byteOffset":1600,
			"target":34963
		},
		{
			"buffer":0,
			"byteLength":63075,
			"byteOffset":1984
		},
		{
			"buffer":0,
			"byteLength":1440,
			"byteOffset":65060,
			"target":34962
		},
		{
			"buffer":0,
			"byteLength":1440,
			"byteOffset":66500,
			"target":34962
		},
		{
			"buffer":0,
			"byteLength":960,
			"byteOffset":67940,
			"target":34962
		},
		{
			"buffer":0,
			"byteLength":792,
			"byteOffset":68900,
			"target":34963
		},
		{
			"buffer":0,
			"byteLength":3150,
			"byteOffset":69692
		},
		{
			"buffer":0,
			"byteLength":31650,
			"byteOffset":72844
		},
		{
			"buffer":0,
			"byteLength":951490,
			"byteOffset":104496
		},
		{
			"buffer":0,
			"byteLength":15953,
			"byteOffset":1055988
		},
		{
			"buffer":0,
			"byteLength":300,
			"byteOffset":1071944,
			"target":34962
		},
		{
			"buffer":0,
			"byteLength":300,
			"byteOffset":1072244,
			"target":34962
		},
		{
			"buffer":0,
			"byteLength":200,
			"byteOffset":1072544,
			"target":34962
		},
		{
			"buffer":0,
			"byteLength":192,
			"byteOffset":1072744,
			"target":34963
		},
		{
			"buffer":0,
			"byteLength":14438,
			"byteOffset":1072936
		},
		{
			"buffer":0,
			"byteLength":300,
			"byteOffset":1087376,
			"target":34962
		},
		{
			"buffer":0,
			"byteLength":300,
			"byteOffset":1087676,
			"target":34962
		},
		{
			"buffer":0,
			"byteLength":200,
			"byteOffset":1087976,
			"target":34962
		},
		{
			"buffer":0,
			"byteLength":76767,
			"byteOffset":1088176
		}
	],
	"samplers":[
		{
			"magFilter":9729,
			"minFilter":9987,
			"wrapS":33071,
			"wrapT":33071
		},
		{
			"magFilter":9729,
			"minFilter":9987
		}
	],
	"buffers":[
		{
			"byteLength":1164944,
			"uri":"data:application/octet-stream;base64,"
		}
	]
}
