{
	"asset":{
		"generator":"Khronos glTF Blender I/O v3.6.27",
		"version":"2.0"
	},
	"extensionsUsed":[
		"KHR_materials_specular",
		"KHR_materials_ior"
	],
	"scene":0,
	"scenes":[
		{
			"name":"Scene",
			"nodes":[
				2
			]
		}
	],
	"nodes":[
		{
			"mesh":0,
			"name":"Text.023",
			"rotation":[
				0.70679771900177,
				0.016280118376016617,
				-0.0194854699075222,
				0.7069599628448486
			],
			"scale":[
				0.21341373026371002,
				0.2334260195493698,
				0.49316978454589844
			],
			"translation":[
				0.04202127456665039,
				0.9270879030227661,
				-0.027309231460094452
			]
		},
		{
			"mesh":1,
			"name":"Text.024",
			"rotation":[
				0.7071068286895752,
				0,
				0,
				0.7071068286895752
			],
			"scale":[
				0.21336032450199127,
				0.23347485065460205,
				0.49316978454589844
			],
			"translation":[
				0.04202127456665039,
				0.3892148733139038,
				-0.027309231460094452
			]
		},
		{
			"children":[
				0,
				1
			],
			"mesh":2,
			"name":"Torus",
			"scale":[
				5.5830278396606445,
				2.415388822555542,
				5.102034091949463
			],
			"translation":[
				-40.06026840209961,
				3.3942291736602783,
				0.6980180740356445
			]
		}
	],
	"animations":[
		{
			"channels":[
				{
					"sampler":0,
					"target":{
						"node":2,
						"path":"translation"
					}
				}
			],
			"name":"TorusAction",
			"samplers":[
				{
					"input":12,
					"interpolation":"LINEAR",
					"output":13
				}
			]
		},
		{
			"channels":[
				{
					"sampler":0,
					"target":{
						"node":0,
						"path":"rotation"
					}
				},
				{
					"sampler":1,
					"target":{
						"node":0,
						"path":"scale"
					}
				}
			],
			"name":"Text.023Action",
			"samplers":[
				{
					"input":14,
					"interpolation":"LINEAR",
					"output":15
				},
				{
					"input":14,
					"interpolation":"LINEAR",
					"output":16
				}
			]
		},
		{
			"channels":[
				{
					"sampler":0,
					"target":{
						"node":1,
						"path":"rotation"
					}
				},
				{
					"sampler":1,
					"target":{
						"node":1,
						"path":"scale"
					}
				}
			],
			"name":"Text.024Action",
			"samplers":[
				{
					"input":17,
					"interpolation":"LINEAR",
					"output":18
				},
				{
					"input":17,
					"interpolation":"LINEAR",
					"output":19
				}
			]
		}
	],
	"materials":[
		{
			"doubleSided":true,
			"name":"GREENIE",
			"pbrMetallicRoughness":{
				"baseColorFactor":[
					0.056037645787000656,
					0.716786801815033,
					0.024156928062438965,
					1
				],
				"metallicFactor":0,
				"roughnessFactor":0.5
			}
		},
		{
			"doubleSided":true,
			"extensions":{
				"KHR_materials_specular":{
					"specularColorFactor":[
						0.5889646364974451,
						0.5889646364974451,
						0.5889646364974451
					]
				},
				"KHR_materials_ior":{
					"ior":1.4500000476837158
				}
			},
			"name":"Material",
			"pbrMetallicRoughness":{
				"baseColorFactor":[
					0.7991029024124146,
					0.023152977228164673,
					0.49102064967155457,
					1
				],
				"metallicFactor":0.49673202633857727,
				"roughnessFactor":0
			}
		}
	],
	"meshes":[
		{
			"name":"Text.014",
			"primitives":[
				{
					"attributes":{
						"POSITION":0,
						"NORMAL":1,
						"TEXCOORD_0":2
					},
					"indices":3,
					"material":0
				}
			]
		},
		{
			"name":"Text.024",
			"primitives":[
				{
					"attributes":{
						"POSITION":4,
						"NORMAL":5,
						"TEXCOORD_0":6
					},
					"indices":7,
					"material":0
				}
			]
		},
		{
			"name":"Torus",
			"primitives":[
				{
					"attributes":{
						"POSITION":8,
						"NORMAL":9,
						"TEXCOORD_0":10
					},
					"indices":11,
					"material":1
				}
			]
		}
	],
	"accessors":[
		{
			"bufferView":0,
			"componentType":5126,
			"count":1532,
			"max":[
				4.0029191970825195,
				0.11999999731779099,
				0
			],
			"min":[
				-4.163503170013428,
				-0.11999999731779099,
				-0.903649628162384
			],
			"type":"VEC3"
		},
		{
			"bufferView":1,
			"componentType":5126,
			"count":1532,
			"type":"VEC3"
		},
		{
			"bufferView":2,
			"componentType":5126,
			"count":1532,
			"type":"VEC2"
		},
		{
			"bufferView":3,
			"componentType":5123,
			"count":4488,
			"type":"SCALAR"
		},
		{
			"bufferView":4,
			"componentType":5126,
			"count":1191,
			"max":[
				4.791970729827881,
				0.11999999731779099,
				0
			],
			"min":[
				-4.938310623168945,
				-0.11999999731779099,
				-0.903649628162384
			],
			"type":"VEC3"
		},
		{
			"bufferView":5,
			"componentType":5126,
			"count":1191,
			"type":"VEC3"
		},
		{
			"bufferView":6,
			"componentType":5126,
			"count":1191,
			"type":"VEC2"
		},
		{
			"bufferView":7,
			"componentType":5123,
			"count":3408,
			"type":"SCALAR"
		},
		{
			"bufferView":8,
			"componentType":5126,
			"count":883,
			"max":[
				1.25,
				0.21650634706020355,
				1.25
			],
			"min":[
				-1.25,
				-0.21650634706020355,
				-1.25
			],
			"type":"VEC3"
		},
		{
			"bufferView":9,
			"componentType":5126,
			"count":883,
			"type":"VEC3"
		},
		{
			"bufferView":10,
			"componentType":5126,
			"count":883,
			"type":"VEC2"
		},
		{
			"bufferView":11,
			"componentType":5123,
			"count":4596,
			"type":"SCALAR"
		},
		{
			"bufferView":12,
			"componentType":5126,
			"count":120,
			"max":[
				4.958333333333333
			],
			"min":[
				0
			],
			"type":"SCALAR"
		},
		{
			"bufferView":13,
			"componentType":5126,
			"count":120,
			"type":"VEC3"
		},
		{
			"bufferView":14,
			"componentType":5126,
			"count":96,
			"max":[
				3.9583333333333335
			],
			"min":[
				0
			],
			"type":"SCALAR"
		},
		{
			"bufferView":15,
			"componentType":5126,
			"count":96,
			"type":"VEC4"
		},
		{
			"bufferView":16,
			"componentType":5126,
			"count":96,
			"type":"VEC3"
		},
		{
			"bufferView":17,
			"componentType":5126,
			"count":129,
			"max":[
				5.375
			],
			"min":[
				0.041666666666666664
			],
			"type":"SCALAR"
		},
		{
			"bufferView":18,
			"componentType":5126,
			"count":129,
			"type":"VEC4"
		},
		{
			"bufferView":19,
			"componentType":5126,
			"count":129,
			"type":"VEC3"
		}
	],
	"bufferViews":[
		{
			"buffer":0,
			"byteLength":18384,
			"byteOffset":0,
			"target":34962
		},
		{
			"buffer":0,
			"byteLength":18384,
			"byteOffset":18384,
			"target":34962
		},
		{
			"buffer":0,
			"byteLength":12256,
			"byteOffset":36768,
			"target":34962
		},
		{
			"buffer":0,
			"byteLength":8976,
			"byteOffset":49024,
			"target":34963
		},
		{
			"buffer":0,
			"byteLength":14292,
			"byteOffset":58000,
			"target":34962
		},
		{
			"buffer":0,
			"byteLength":14292,
			"byteOffset":72292,
			"target":34962
		},
		{
			"buffer":0,
			"byteLength":9528,
			"byteOffset":86584,
			"target":34962
		},
		{
			"buffer":0,
			"byteLength":6816,
			"byteOffset":96112,
			"target":34963
		},
		{
			"buffer":0,
			"byteLength":10596,
			"byteOffset":102928,
			"target":34962
		},
		{
			"buffer":0,
			"byteLength":10596,
			"byteOffset":113524,
			"target":34962
		},
		{
			"buffer":0,
			"byteLength":7064,
			"byteOffset":124120,
			"target":34962
		},
		{
			"buffer":0,
			"byteLength":9192,
			"byteOffset":131184,
			"target":34963
		},
		{
			"buffer":0,
			"byteLength":480,
			"byteOffset":140376
		},
		{
			"buffer":0,
			"byteLength":1440,
			"byteOffset":140856
		},
		{
			"buffer":0,
			"byteLength":384,
			"byteOffset":142296
		},
		{
			"buffer":0,
			"byteLength":1536,
			"byteOffset":142680
		},
		{
			"buffer":0,
			"byteLength":1152,
			"byteOffset":144216
		},
		{
			"buffer":0,
			"byteLength":516,
			"byteOffset":145368
		},
		{
			"buffer":0,
			"byteLength":2064,
			"byteOffset":145884
		},
		{
			"buffer":0,
			"byteLength":1548,
			"byteOffset":147948
		}
	],
	"buffers":[
		{
			"byteLength":149496,
			"uri":"data:application/octet-stream;base64,"
		}
	]
}
