{
	"asset":{
		"generator":"Khronos glTF Blender I/O v3.6.27",
		"version":"2.0"
	},
	"extensionsUsed":[
		"KHR_materials_specular",
		"KHR_materials_ior"
	],
	"scene":0,
	"scenes":[
		{
			"name":"Scene",
			"nodes":[
				1,
				3,
				4,
				5
			]
		}
	],
	"nodes":[
		{
			"mesh":0,
			"name":"Text.016_Text.001",
			"rotation":[
				0.70710688829422,
				0,
				0,
				0.7071066498756409
			],
			"scale":[
				0.16375179588794708,
				0.16375179588794708,
				0.16375179588794708
			],
			"translation":[
				0.030263900756835938,
				-0.013150215148925781,
				0.14260578155517578
			]
		},
		{
			"children":[
				0
			],
			"name":"Empty.002",
			"scale":[
				2.7973923683166504,
				2.7973923683166504,
				2.7973923683166504
			],
			"translation":[
				-12.535146713256836,
				6.138808727264404,
				0.16049323976039886
			]
		},
		{
			"mesh":1,
			"name":"Text.016_Text.002",
			"rotation":[
				0.70710688829422,
				0,
				0,
				0.7071066498756409
			],
			"scale":[
				0.13867990672588348,
				0.1386798918247223,
				0.1386798918247223
			],
			"translation":[
				-0.011208534240722656,
				-0.009075641632080078,
				0.020263805985450745
			]
		},
		{
			"children":[
				2
			],
			"name":"Empty.003",
			"scale":[
				3.3031325340270996,
				3.3031325340270996,
				3.3031325340270996
			],
			"translation":[
				-16.643417358398438,
				6.103092670440674,
				0.49175193905830383
			]
		},
		{
			"mesh":2,
			"name":"Cube.019",
			"rotation":[
				0.6705127954483032,
				0.22452792525291443,
				0.22452802956104279,
				0.6705125570297241
			],
			"scale":[
				0.22001506388187408,
				0.08230379223823547,
				0.22001509368419647
			],
			"translation":[
				-10.176459312438965,
				4.7783026695251465,
				0.4411085546016693
			]
		},
		{
			"mesh":3,
			"name":"Cube.020",
			"rotation":[
				0.32865455746650696,
				-0.6260879039764404,
				-0.62608802318573,
				0.3286546766757965
			],
			"scale":[
				0.22001509368419647,
				0.08230379223823547,
				0.22001506388187408
			],
			"translation":[
				-18.7455997467041,
				7.049829006195068,
				0.4411085546016693
			]
		}
	],
	"animations":[
		{
			"channels":[
				{
					"sampler":0,
					"target":{
						"node":0,
						"path":"translation"
					}
				},
				{
					"sampler":1,
					"target":{
						"node":0,
						"path":"rotation"
					}
				},
				{
					"sampler":2,
					"target":{
						"node":0,
						"path":"scale"
					}
				},
				{
					"sampler":3,
					"target":{
						"node":2,
						"path":"translation"
					}
				},
				{
					"sampler":4,
					"target":{
						"node":2,
						"path":"rotation"
					}
				},
				{
					"sampler":5,
					"target":{
						"node":2,
						"path":"scale"
					}
				},
				{
					"sampler":6,
					"target":{
						"node":4,
						"path":"translation"
					}
				},
				{
					"sampler":7,
					"target":{
						"node":4,
						"path":"rotation"
					}
				},
				{
					"sampler":8,
					"target":{
						"node":4,
						"path":"scale"
					}
				},
				{
					"sampler":9,
					"target":{
						"node":5,
						"path":"translation"
					}
				},
				{
					"sampler":10,
					"target":{
						"node":5,
						"path":"rotation"
					}
				},
				{
					"sampler":11,
					"target":{
						"node":5,
						"path":"scale"
					}
				}
			],
			"name":"Animation",
			"samplers":[
				{
					"input":28,
					"interpolation":"STEP",
					"output":29
				},
				{
					"input":30,
					"interpolation":"LINEAR",
					"output":31
				},
				{
					"input":28,
					"interpolation":"STEP",
					"output":32
				},
				{
					"input":28,
					"interpolation":"STEP",
					"output":33
				},
				{
					"input":30,
					"interpolation":"LINEAR",
					"output":34
				},
				{
					"input":28,
					"interpolation":"STEP",
					"output":35
				},
				{
					"input":36,
					"interpolation":"LINEAR",
					"output":37
				},
				{
					"input":36,
					"interpolation":"LINEAR",
					"output":38
				},
				{
					"input":36,
					"interpolation":"LINEAR",
					"output":39
				},
				{
					"input":36,
					"interpolation":"LINEAR",
					"output":40
				},
				{
					"input":36,
					"interpolation":"LINEAR",
					"output":41
				},
				{
					"input":36,
					"interpolation":"LINEAR",
					"output":42
				}
			]
		}
	],
	"materials":[
		{
			"doubleSided":true,
			"name":"GREENIE",
			"pbrMetallicRoughness":{
				"baseColorFactor":[
					0.05603799968957901,
					0.7167869806289673,
					0.024157000705599785,
					1
				],
				"metallicFactor":0,
				"roughnessFactor":0.5
			}
		},
		{
			"doubleSided":true,
			"emissiveFactor":[
				0.8004929423332214,
				0,
				0.25166556239128113
			],
			"name":"TV SCREEN",
			"pbrMetallicRoughness":{
				"baseColorFactor":[
					0,
					0,
					0,
					1
				],
				"metallicFactor":0,
				"roughnessFactor":0
			}
		},
		{
			"doubleSided":true,
			"emissiveFactor":[
				1,
				1,
				1
			],
			"emissiveTexture":{
				"index":0
			},
			"name":"TV COLOR ",
			"normalTexture":{
				"index":1
			},
			"pbrMetallicRoughness":{
				"baseColorTexture":{
					"index":2
				},
				"metallicRoughnessTexture":{
					"index":3
				}
			}
		},
		{
			"doubleSided":true,
			"extensions":{
				"KHR_materials_specular":{
					"specularColorFactor":[
						1.1574483257764137,
						1.1574483257764137,
						1.1574483257764137
					]
				},
				"KHR_materials_ior":{
					"ior":1.4500000476837158
				}
			},
			"name":"BUBBLE GUM",
			"pbrMetallicRoughness":{
				"baseColorFactor":[
					0.8000000715255737,
					0.10072911530733109,
					0.44485488533973694,
					1
				],
				"metallicFactor":0,
				"roughnessFactor":0
			}
		}
	],
	"meshes":[
		{
			"name":"Text.016_Text.001",
			"primitives":[
				{
					"attributes":{
						"POSITION":0,
						"NORMAL":1,
						"TEXCOORD_0":2
					},
					"indices":3,
					"material":0
				},
				{
					"attributes":{
						"POSITION":4,
						"NORMAL":5,
						"TEXCOORD_0":6
					},
					"indices":7,
					"material":1
				},
				{
					"attributes":{
						"POSITION":8,
						"NORMAL":9,
						"TEXCOORD_0":10
					},
					"indices":11,
					"material":2
				}
			]
		},
		{
			"name":"Text.016_Text.002",
			"primitives":[
				{
					"attributes":{
						"POSITION":12,
						"NORMAL":13,
						"TEXCOORD_0":14
					},
					"indices":3,
					"material":0
				},
				{
					"attributes":{
						"POSITION":15,
						"NORMAL":16,
						"TEXCOORD_0":17
					},
					"indices":7,
					"material":1
				},
				{
					"attributes":{
						"POSITION":18,
						"NORMAL":19,
						"TEXCOORD_0":20
					},
					"indices":11,
					"material":2
				}
			]
		},
		{
			"name":"Cube.002",
			"primitives":[
				{
					"attributes":{
						"POSITION":21,
						"NORMAL":22,
						"TEXCOORD_0":23
					},
					"indices":24,
					"material":3
				}
			]
		},
		{
			"name":"Cube.004",
			"primitives":[
				{
					"attributes":{
						"POSITION":25,
						"NORMAL":26,
						"TEXCOORD_0":27
					},
					"indices":24,
					"material":3
				}
			]
		}
	],
	"textures":[
		{
			"sampler":0,
			"source":0
		},
		{
			"sampler":0,
			"source":1
		},
		{
			"sampler":0,
			"source":2
		},
		{
			"sampler":0,
			"source":3
		}
	],
	"images":[
		{
			"bufferView":12,
			"mimeType":"image/png",
			"name":"Material.001_Emission"
		},
		{
			"bufferView":13,
			"mimeType":"image/png",
			"name":"Material.001_Normal"
		},
		{
			"bufferView":14,
			"mimeType":"image/png",
			"name":"Material.001_BaseColor.png-Material.001_Alpha.png"
		},
		{
			"bufferView":15,
			"mimeType":"image/png",
			"name":"Material.001_Metallic.png-Material.001_Roughness.png"
		}
	],
	"accessors":[
		{
			"bufferView":0,
			"componentType":5126,
			"count":4648,
			"max":[
				3.447329521179199,
				-0.1143297553062439,
				0.54295814037323
			],
			"min":[
				-3.248842716217041,
				-0.5541634559631348,
				-0.7944720983505249
			],
			"type":"VEC3"
		},
		{
			"bufferView":1,
			"componentType":5126,
			"count":4648,
			"type":"VEC3"
		},
		{
			"bufferView":2,
			"componentType":5126,
			"count":4648,
			"type":"VEC2"
		},
		{
			"bufferView":3,
			"componentType":5123,
			"count":7173,
			"type":"SCALAR"
		},
		{
			"bufferView":4,
			"componentType":5126,
			"count":1528,
			"max":[
				3.9644341468811035,
				-0.12178924679756165,
				2.791501760482788
			],
			"min":[
				-3.8141024112701416,
				-0.9978044033050537,
				-2.8745012283325195
			],
			"type":"VEC3"
		},
		{
			"bufferView":5,
			"componentType":5126,
			"count":1528,
			"type":"VEC3"
		},
		{
			"bufferView":6,
			"componentType":5126,
			"count":1528,
			"type":"VEC2"
		},
		{
			"bufferView":7,
			"componentType":5123,
			"count":6639,
			"type":"SCALAR"
		},
		{
			"bufferView":8,
			"componentType":5126,
			"count":13049,
			"max":[
				4.442818641662598,
				-0.6920919418334961,
				3.1329522132873535
			],
			"min":[
				-4.273114204406738,
				-2.7059895992279053,
				-3.215951442718506
			],
			"type":"VEC3"
		},
		{
			"bufferView":9,
			"componentType":5126,
			"count":13049,
			"type":"VEC3"
		},
		{
			"bufferView":10,
			"componentType":5126,
			"count":13049,
			"type":"VEC2"
		},
		{
			"bufferView":11,
			"componentType":5123,
			"count":73728,
			"type":"SCALAR"
		},
		{
			"bufferView":16,
			"componentType":5126,
			"count":4648,
			"max":[
				3.447329521179199,
				-0.1143297553062439,
				0.54295814037323
			],
			"min":[
				-3.248842716217041,
				-0.5541634559631348,
				-0.7944720983505249
			],
			"type":"VEC3"
		},
		{
			"bufferView":17,
			"componentType":5126,
			"count":4648,
			"type":"VEC3"
		},
		{
			"bufferView":18,
			"componentType":5126,
			"count":4648,
			"type":"VEC2"
		},
		{
			"bufferView":19,
			"componentType":5126,
			"count":1528,
			"max":[
				3.9644341468811035,
				-0.12178924679756165,
				2.791501760482788
			],
			"min":[
				-3.8141024112701416,
				-0.9978044033050537,
				-2.8745012283325195
			],
			"type":"VEC3"
		},
		{
			"bufferView":20,
			"componentType":5126,
			"count":1528,
			"type":"VEC3"
		},
		{
			"bufferView":21,
			"componentType":5126,
			"count":1528,
			"type":"VEC2"
		},
		{
			"bufferView":22,
			"componentType":5126,
			"count":13049,
			"max":[
				4.442818641662598,
				-0.6920919418334961,
				3.1329522132873535
			],
			"min":[
				-4.273114204406738,
				-2.7059895992279053,
				-3.215951442718506
			],
			"type":"VEC3"
		},
		{
			"bufferView":23,
			"componentType":5126,
			"count":13049,
			"type":"VEC3"
		},
		{
			"bufferView":24,
			"componentType":5126,
			"count":13049,
			"type":"VEC2"
		},
		{
			"bufferView":25,
			"componentType":5126,
			"count":1240,
			"max":[
				3.400428295135498,
				1,
				5.114306449890137
			],
			"min":[
				-3.4114632606506348,
				-1,
				-4.764951705932617
			],
			"type":"VEC3"
		},
		{
			"bufferView":26,
			"componentType":5126,
			"count":1240,
			"type":"VEC3"
		},
		{
			"bufferView":27,
			"componentType":5126,
			"count":1240,
			"type":"VEC2"
		},
		{
			"bufferView":28,
			"componentType":5123,
			"count":6756,
			"type":"SCALAR"
		},
		{
			"bufferView":29,
			"componentType":5126,
			"count":1240,
			"max":[
				3.400428295135498,
				1,
				5.114306449890137
			],
			"min":[
				-3.4114632606506348,
				-1,
				-4.764951705932617
			],
			"type":"VEC3"
		},
		{
			"bufferView":30,
			"componentType":5126,
			"count":1240,
			"type":"VEC3"
		},
		{
			"bufferView":31,
			"componentType":5126,
			"count":1240,
			"type":"VEC2"
		},
		{
			"bufferView":32,
			"componentType":5126,
			"count":2,
			"max":[
				2.2916666666666665
			],
			"min":[
				0
			],
			"type":"SCALAR"
		},
		{
			"bufferView":33,
			"componentType":5126,
			"count":2,
			"type":"VEC3"
		},
		{
			"bufferView":34,
			"componentType":5126,
			"count":56,
			"max":[
				2.2916666666666665
			],
			"min":[
				0
			],
			"type":"SCALAR"
		},
		{
			"bufferView":35,
			"componentType":5126,
			"count":56,
			"type":"VEC4"
		},
		{
			"bufferView":36,
			"componentType":5126,
			"count":2,
			"type":"VEC3"
		},
		{
			"bufferView":37,
			"componentType":5126,
			"count":2,
			"type":"VEC3"
		},
		{
			"bufferView":38,
			"componentType":5126,
			"count":56,
			"type":"VEC4"
		},
		{
			"bufferView":39,
			"componentType":5126,
			"count":2,
			"type":"VEC3"
		},
		{
			"bufferView":40,
			"componentType":5126,
			"count":41,
			"max":[
				1.6666666666666667
			],
			"min":[
				0
			],
			"type":"SCALAR"
		},
		{
			"bufferView":41,
			"componentType":5126,
			"count":41,
			"type":"VEC3"
		},
		{
			"bufferView":42,
			"componentType":5126,
			"count":41,
			"type":"VEC4"
		},
		{
			"bufferView":43,
			"componentType":5126,
			"count":41,
			"type":"VEC3"
		},
		{
			"bufferView":44,
			"componentType":5126,
			"count":41,
			"type":"VEC3"
		},
		{
			"bufferView":45,
			"componentType":5126,
			"count":41,
			"type":"VEC4"
		},
		{
			"bufferView":46,
			"componentType":5126,
			"count":41,
			"type":"VEC3"
		}
	],
	"bufferViews":[
		{
			"buffer":0,
			"byteLength":55776,
			"byteOffset":0,
			"target":34962
		},
		{
			"buffer":0,
			"byteLength":55776,
			"byteOffset":55776,
			"target":34962
		},
		{
			"buffer":0,
			"byteLength":37184,
			"byteOffset":111552,
			"target":34962
		},
		{
			"buffer":0,
			"byteLength":14346,
			"byteOffset":148736,
			"target":34963
		},
		{
			"buffer":0,
			"byteLength":18336,
			"byteOffset":163084,
			"target":34962
		},
		{
			"buffer":0,
			"byteLength":18336,
			"byteOffset":181420,
			"target":34962
		},
		{
			"buffer":0,
			"byteLength":12224,
			"byteOffset":199756,
			"target":34962
		},
		{
			"buffer":0,
			"byteLength":13278,
			"byteOffset":211980,
			"target":34963
		},
		{
			"buffer":0,
			"byteLength":156588,
			"byteOffset":225260,
			"target":34962
		},
		{
			"buffer":0,
			"byteLength":156588,
			"byteOffset":381848,
			"target":34962
		},
		{
			"buffer":0,
			"byteLength":104392,
			"byteOffset":538436,
			"target":34962
		},
		{
			"buffer":0,
			"byteLength":147456,
			"byteOffset":642828,
			"target":34963
		},
		{
			"buffer":0,
			"byteLength":3150,
			"byteOffset":790284
		},
		{
			"buffer":0,
			"byteLength":1269906,
			"byteOffset":793436
		},
		{
			"buffer":0,
			"byteLength":20722,
			"byteOffset":2063344
		},
		{
			"buffer":0,
			"byteLength":15953,
			"byteOffset":2084068
		},
		{
			"buffer":0,
			"byteLength":55776,
			"byteOffset":2100024,
			"target":34962
		},
		{
			"buffer":0,
			"byteLength":55776,
			"byteOffset":2155800,
			"target":34962
		},
		{
			"buffer":0,
			"byteLength":37184,
			"byteOffset":2211576,
			"target":34962
		},
		{
			"buffer":0,
			"byteLength":18336,
			"byteOffset":2248760,
			"target":34962
		},
		{
			"buffer":0,
			"byteLength":18336,
			"byteOffset":2267096,
			"target":34962
		},
		{
			"buffer":0,
			"byteLength":12224,
			"byteOffset":2285432,
			"target":34962
		},
		{
			"buffer":0,
			"byteLength":156588,
			"byteOffset":2297656,
			"target":34962
		},
		{
			"buffer":0,
			"byteLength":156588,
			"byteOffset":2454244,
			"target":34962
		},
		{
			"buffer":0,
			"byteLength":104392,
			"byteOffset":2610832,
			"target":34962
		},
		{
			"buffer":0,
			"byteLength":14880,
			"byteOffset":2715224,
			"target":34962
		},
		{
			"buffer":0,
			"byteLength":14880,
			"byteOffset":2730104,
			"target":34962
		},
		{
			"buffer":0,
			"byteLength":9920,
			"byteOffset":2744984,
			"target":34962
		},
		{
			"buffer":0,
			"byteLength":13512,
			"byteOffset":2754904,
			"target":34963
		},
		{
			"buffer":0,
			"byteLength":14880,
			"byteOffset":2768416,
			"target":34962
		},
		{
			"buffer":0,
			"byteLength":14880,
			"byteOffset":2783296,
			"target":34962
		},
		{
			"buffer":0,
			"byteLength":9920,
			"byteOffset":2798176,
			"target":34962
		},
		{
			"buffer":0,
			"byteLength":8,
			"byteOffset":2808096
		},
		{
			"buffer":0,
			"byteLength":24,
			"byteOffset":2808104
		},
		{
			"buffer":0,
			"byteLength":224,
			"byteOffset":2808128
		},
		{
			"buffer":0,
			"byteLength":896,
			"byteOffset":2808352
		},
		{
			"buffer":0,
			"byteLength":24,
			"byteOffset":2809248
		},
		{
			"buffer":0,
			"byteLength":24,
			"byteOffset":2809272
		},
		{
			"buffer":0,
			"byteLength":896,
			"byteOffset":2809296
		},
		{
			"buffer":0,
			"byteLength":24,
			"byteOffset":2810192
		},
		{
			"buffer":0,
			"byteLength":164,
			"byteOffset":2810216
		},
		{
			"buffer":0,
			"byteLength":492,
			"byteOffset":2810380
		},
		{
			"buffer":0,
			"byteLength":656,
			"byteOffset":2810872
		},
		{
			"buffer":0,
			"byteLength":492,
			"byteOffset":2811528
		},
		{
			"buffer":0,
			"byteLength":492,
			"byteOffset":2812020
		},
		{
			"buffer":0,
			"byteLength":656,
			"byteOffset":2812512
		},
		{
			"buffer":0,
			"byteLength":492,
			"byteOffset":2813168
		}
	],
	"samplers":[
		{
			"magFilter":9729,
			"minFilter":9987
		}
	],
	"buffers":[
		{
			"byteLength":2813660,
			"uri":"data:application/octet-stream;base64,"
		}
	]
}
