{
	"asset":{
		"generator":"Khronos glTF Blender I/O v3.6.27",
		"version":"2.0"
	},
	"extensionsUsed":[
		"KHR_materials_specular"
	],
	"scene":0,
	"scenes":[
		{
			"name":"Scene",
			"nodes":[
				0,
				2
			]
		}
	],
	"nodes":[
		{
			"mesh":0,
			"name":"Text.016_Text.001",
			"rotation":[
				0.7071069478988647,
				0,
				0,
				0.7071065902709961
			],
			"scale":[
				0.4580780863761902,
				0.4580780267715454,
				0.4580780267715454
			],
			"translation":[
				-10.074796676635742,
				6.206832408905029,
				0.5586858987808228
			]
		},
		{
			"mesh":1,
			"name":"Cube.025",
			"rotation":[
				0.6297626495361328,
				0.32155731320381165,
				0.32155734300613403,
				0.6297624707221985
			],
			"scale":[
				0.22196391224861145,
				0.08303281664848328,
				0.22196391224861145
			],
			"translation":[
				0.0017566680908203125,
				-0.023741722106933594,
				-0.08304643630981445
			]
		},
		{
			"children":[
				1
			],
			"name":"Empty.002",
			"scale":[
				0.4629887640476227,
				0.4629887640476227,
				0.4629887640476227
			],
			"translation":[
				-8.309515953063965,
				5.2561354637146,
				0.878809928894043
			]
		}
	],
	"animations":[
		{
			"channels":[
				{
					"sampler":0,
					"target":{
						"node":0,
						"path":"translation"
					}
				},
				{
					"sampler":1,
					"target":{
						"node":0,
						"path":"rotation"
					}
				},
				{
					"sampler":2,
					"target":{
						"node":0,
						"path":"scale"
					}
				},
				{
					"sampler":3,
					"target":{
						"node":1,
						"path":"translation"
					}
				},
				{
					"sampler":4,
					"target":{
						"node":1,
						"path":"rotation"
					}
				},
				{
					"sampler":5,
					"target":{
						"node":1,
						"path":"scale"
					}
				}
			],
			"name":"Animation",
			"samplers":[
				{
					"input":16,
					"interpolation":"STEP",
					"output":17
				},
				{
					"input":18,
					"interpolation":"LINEAR",
					"output":19
				},
				{
					"input":16,
					"interpolation":"STEP",
					"output":20
				},
				{
					"input":21,
					"interpolation":"LINEAR",
					"output":22
				},
				{
					"input":23,
					"interpolation":"STEP",
					"output":24
				},
				{
					"input":23,
					"interpolation":"STEP",
					"output":25
				}
			]
		}
	],
	"materials":[
		{
			"doubleSided":true,
			"name":"GREENIE",
			"pbrMetallicRoughness":{
				"baseColorFactor":[
					0.05603799968957901,
					0.7167869806289673,
					0.024157000705599785,
					1
				],
				"metallicFactor":0,
				"roughnessFactor":0.5
			}
		},
		{
			"doubleSided":true,
			"emissiveFactor":[
				0.8004929423332214,
				0,
				0.25166556239128113
			],
			"name":"TV SCREEN",
			"pbrMetallicRoughness":{
				"baseColorFactor":[
					0,
					0,
					0,
					1
				],
				"metallicFactor":0,
				"roughnessFactor":0
			}
		},
		{
			"doubleSided":true,
			"emissiveFactor":[
				1,
				1,
				1
			],
			"emissiveTexture":{
				"index":0
			},
			"name":"TV COLOR ",
			"normalTexture":{
				"index":1
			},
			"pbrMetallicRoughness":{
				"baseColorTexture":{
					"index":2
				},
				"metallicRoughnessTexture":{
					"index":3
				}
			}
		},
		{
			"doubleSided":true,
			"extensions":{
				"KHR_materials_specular":{
					"specularColorFactor":[
						1.285714268684387,
						1.285714268684387,
						1.285714268684387
					]
				}
			},
			"name":"Material.001",
			"pbrMetallicRoughness":{
				"baseColorFactor":[
					0.6514059901237488,
					0.0394144132733345,
					0.5053095817565918,
					1
				],
				"metallicFactor":0,
				"roughnessFactor":0.016339868307113647
			}
		}
	],
	"meshes":[
		{
			"name":"Text.016_Text.001",
			"primitives":[
				{
					"attributes":{
						"POSITION":0,
						"NORMAL":1,
						"TEXCOORD_0":2
					},
					"indices":3,
					"material":0
				},
				{
					"attributes":{
						"POSITION":4,
						"NORMAL":5,
						"TEXCOORD_0":6
					},
					"indices":7,
					"material":1
				},
				{
					"attributes":{
						"POSITION":8,
						"NORMAL":9,
						"TEXCOORD_0":10
					},
					"indices":11,
					"material":2
				}
			]
		},
		{
			"name":"Cube.010",
			"primitives":[
				{
					"attributes":{
						"POSITION":12,
						"NORMAL":13,
						"TEXCOORD_0":14
					},
					"indices":15,
					"material":3
				}
			]
		}
	],
	"textures":[
		{
			"sampler":0,
			"source":0
		},
		{
			"sampler":0,
			"source":1
		},
		{
			"sampler":0,
			"source":2
		},
		{
			"sampler":0,
			"source":3
		}
	],
	"images":[
		{
			"bufferView":12,
			"mimeType":"image/png",
			"name":"Material"
		},
		{
			"bufferView":13,
			"mimeType":"image/png",
			"name":"Material"
		},
		{
			"bufferView":14,
			"mimeType":"image/png",
			"name":"Material.001_BaseColor.png-Material.001_Alpha"
		},
		{
			"bufferView":15,
			"mimeType":"image/png",
			"name":"Material.001_Metallic.png-Material.001_Roughness"
		}
	],
	"accessors":[
		{
			"bufferView":0,
			"componentType":5126,
			"count":4686,
			"max":[
				3.447329521179199,
				-0.1143297553062439,
				0.54295814037323
			],
			"min":[
				-3.248842716217041,
				-0.5541634559631348,
				-0.7944720983505249
			],
			"type":"VEC3"
		},
		{
			"bufferView":1,
			"componentType":5126,
			"count":4686,
			"type":"VEC3"
		},
		{
			"bufferView":2,
			"componentType":5126,
			"count":4686,
			"type":"VEC2"
		},
		{
			"bufferView":3,
			"componentType":5123,
			"count":7173,
			"type":"SCALAR"
		},
		{
			"bufferView":4,
			"componentType":5126,
			"count":1534,
			"max":[
				3.9644341468811035,
				-0.12178924679756165,
				2.791501760482788
			],
			"min":[
				-3.8141024112701416,
				-0.9978044033050537,
				-2.8745012283325195
			],
			"type":"VEC3"
		},
		{
			"bufferView":5,
			"componentType":5126,
			"count":1534,
			"type":"VEC3"
		},
		{
			"bufferView":6,
			"componentType":5126,
			"count":1534,
			"type":"VEC2"
		},
		{
			"bufferView":7,
			"componentType":5123,
			"count":6639,
			"type":"SCALAR"
		},
		{
			"bufferView":8,
			"componentType":5126,
			"count":13049,
			"max":[
				4.442818641662598,
				-0.6920919418334961,
				3.1329522132873535
			],
			"min":[
				-4.273114204406738,
				-2.7059895992279053,
				-3.215951442718506
			],
			"type":"VEC3"
		},
		{
			"bufferView":9,
			"componentType":5126,
			"count":13049,
			"type":"VEC3"
		},
		{
			"bufferView":10,
			"componentType":5126,
			"count":13049,
			"type":"VEC2"
		},
		{
			"bufferView":11,
			"componentType":5123,
			"count":73728,
			"type":"SCALAR"
		},
		{
			"bufferView":16,
			"componentType":5126,
			"count":1240,
			"max":[
				3.400428295135498,
				1,
				5.114306449890137
			],
			"min":[
				-3.4114632606506348,
				-1,
				-4.764951705932617
			],
			"type":"VEC3"
		},
		{
			"bufferView":17,
			"componentType":5126,
			"count":1240,
			"type":"VEC3"
		},
		{
			"bufferView":18,
			"componentType":5126,
			"count":1240,
			"type":"VEC2"
		},
		{
			"bufferView":19,
			"componentType":5123,
			"count":6756,
			"type":"SCALAR"
		},
		{
			"bufferView":20,
			"componentType":5126,
			"count":2,
			"max":[
				2.2916666666666665
			],
			"min":[
				0
			],
			"type":"SCALAR"
		},
		{
			"bufferView":21,
			"componentType":5126,
			"count":2,
			"type":"VEC3"
		},
		{
			"bufferView":22,
			"componentType":5126,
			"count":56,
			"max":[
				2.2916666666666665
			],
			"min":[
				0
			],
			"type":"SCALAR"
		},
		{
			"bufferView":23,
			"componentType":5126,
			"count":56,
			"type":"VEC4"
		},
		{
			"bufferView":24,
			"componentType":5126,
			"count":2,
			"type":"VEC3"
		},
		{
			"bufferView":25,
			"componentType":5126,
			"count":50,
			"max":[
				2.0416666666666665
			],
			"min":[
				0
			],
			"type":"SCALAR"
		},
		{
			"bufferView":26,
			"componentType":5126,
			"count":50,
			"type":"VEC3"
		},
		{
			"bufferView":27,
			"componentType":5126,
			"count":2,
			"max":[
				2.0416666666666665
			],
			"min":[
				0
			],
			"type":"SCALAR"
		},
		{
			"bufferView":28,
			"componentType":5126,
			"count":2,
			"type":"VEC4"
		},
		{
			"bufferView":29,
			"componentType":5126,
			"count":2,
			"type":"VEC3"
		}
	],
	"bufferViews":[
		{
			"buffer":0,
			"byteLength":56232,
			"byteOffset":0,
			"target":34962
		},
		{
			"buffer":0,
			"byteLength":56232,
			"byteOffset":56232,
			"target":34962
		},
		{
			"buffer":0,
			"byteLength":37488,
			"byteOffset":112464,
			"target":34962
		},
		{
			"buffer":0,
			"byteLength":14346,
			"byteOffset":149952,
			"target":34963
		},
		{
			"buffer":0,
			"byteLength":18408,
			"byteOffset":164300,
			"target":34962
		},
		{
			"buffer":0,
			"byteLength":18408,
			"byteOffset":182708,
			"target":34962
		},
		{
			"buffer":0,
			"byteLength":12272,
			"byteOffset":201116,
			"target":34962
		},
		{
			"buffer":0,
			"byteLength":13278,
			"byteOffset":213388,
			"target":34963
		},
		{
			"buffer":0,
			"byteLength":156588,
			"byteOffset":226668,
			"target":34962
		},
		{
			"buffer":0,
			"byteLength":156588,
			"byteOffset":383256,
			"target":34962
		},
		{
			"buffer":0,
			"byteLength":104392,
			"byteOffset":539844,
			"target":34962
		},
		{
			"buffer":0,
			"byteLength":147456,
			"byteOffset":644236,
			"target":34963
		},
		{
			"buffer":0,
			"byteLength":3150,
			"byteOffset":791692
		},
		{
			"buffer":0,
			"byteLength":1269906,
			"byteOffset":794844
		},
		{
			"buffer":0,
			"byteLength":20722,
			"byteOffset":2064752
		},
		{
			"buffer":0,
			"byteLength":15953,
			"byteOffset":2085476
		},
		{
			"buffer":0,
			"byteLength":14880,
			"byteOffset":2101432,
			"target":34962
		},
		{
			"buffer":0,
			"byteLength":14880,
			"byteOffset":2116312,
			"target":34962
		},
		{
			"buffer":0,
			"byteLength":9920,
			"byteOffset":2131192,
			"target":34962
		},
		{
			"buffer":0,
			"byteLength":13512,
			"byteOffset":2141112,
			"target":34963
		},
		{
			"buffer":0,
			"byteLength":8,
			"byteOffset":2154624
		},
		{
			"buffer":0,
			"byteLength":24,
			"byteOffset":2154632
		},
		{
			"buffer":0,
			"byteLength":224,
			"byteOffset":2154656
		},
		{
			"buffer":0,
			"byteLength":896,
			"byteOffset":2154880
		},
		{
			"buffer":0,
			"byteLength":24,
			"byteOffset":2155776
		},
		{
			"buffer":0,
			"byteLength":200,
			"byteOffset":2155800
		},
		{
			"buffer":0,
			"byteLength":600,
			"byteOffset":2156000
		},
		{
			"buffer":0,
			"byteLength":8,
			"byteOffset":2156600
		},
		{
			"buffer":0,
			"byteLength":32,
			"byteOffset":2156608
		},
		{
			"buffer":0,
			"byteLength":24,
			"byteOffset":2156640
		}
	],
	"samplers":[
		{
			"magFilter":9729,
			"minFilter":9987
		}
	],
	"buffers":[
		{
			"byteLength":2156664,
			"uri":"data:application/octet-stream;base64,"
		}
	]
}
