{
	"asset":{
		"generator":"Khronos glTF Blender I/O v3.6.27",
		"version":"2.0"
	},
	"scene":0,
	"scenes":[
		{
			"name":"Scene",
			"nodes":[
				0
			]
		}
	],
	"nodes":[
		{
			"mesh":0,
			"name":"Text.064",
			"rotation":[
				0.7071068286895752,
				0,
				0,
				0.7071068286895752
			],
			"translation":[
				12.101812362670898,
				3.5109331607818604,
				0.14063715934753418
			]
		}
	],
	"materials":[
		{
			"doubleSided":true,
			"name":"HOT PINK",
			"pbrMetallicRoughness":{
				"baseColorFactor":[
					0.6514059901237488,
					0.005605069454759359,
					0.4396570026874542,
					1
				],
				"metallicFactor":0,
				"roughnessFactor":0.016339868307113647
			}
		}
	],
	"meshes":[
		{
			"name":"Text.057",
			"primitives":[
				{
					"attributes":{
						"POSITION":0,
						"NORMAL":1,
						"TEXCOORD_0":2
					},
					"indices":3,
					"material":0
				}
			]
		}
	],
	"accessors":[
		{
			"bufferView":0,
			"componentType":5126,
			"count":42824,
			"max":[
				4.494457721710205,
				0.06655178964138031,
				1.5401759147644043
			],
			"min":[
				-9.080081939697266,
				-0.0665518045425415,
				-0.4059450626373291
			],
			"type":"VEC3"
		},
		{
			"bufferView":1,
			"componentType":5126,
			"count":42824,
			"type":"VEC3"
		},
		{
			"bufferView":2,
			"componentType":5126,
			"count":42824,
			"type":"VEC2"
		},
		{
			"bufferView":3,
			"componentType":5123,
			"count":217308,
			"type":"SCALAR"
		}
	],
	"bufferViews":[
		{
			"buffer":0,
			"byteLength":513888,
			"byteOffset":0,
			"target":34962
		},
		{
			"buffer":0,
			"byteLength":513888,
			"byteOffset":513888,
			"target":34962
		},
		{
			"buffer":0,
			"byteLength":342592,
			"byteOffset":1027776,
			"target":34962
		},
		{
			"buffer":0,
			"byteLength":434616,
			"byteOffset":1370368,
			"target":34963
		}
	],
	"buffers":[
		{
			"byteLength":1804984,
			"uri":"data:application/octet-stream;base64,"
		}
	]
}
