{
	"asset":{
		"generator":"Khronos glTF Blender I/O v3.6.27",
		"version":"2.0"
	},
	"scene":0,
	"scenes":[
		{
			"name":"Scene",
			"nodes":[
				0
			]
		}
	],
	"nodes":[
		{
			"mesh":0,
			"name":"Text.005",
			"rotation":[
				0.7071068286895752,
				0,
				0,
				0.7071068286895752
			],
			"scale":[
				0.5341463088989258,
				0.5341463088989258,
				0.5341463088989258
			],
			"translation":[
				3.1550397872924805,
				12.077152252197266,
				2.1690988540649414
			]
		}
	],
	"materials":[
		{
			"doubleSided":true,
			"name":"P",
			"pbrMetallicRoughness":{
				"baseColorFactor":[
					0.7991029620170593,
					0.0009102629846893251,
					0.3371635377407074,
					1
				],
				"metallicFactor":0,
				"roughnessFactor":0.5
			}
		}
	],
	"meshes":[
		{
			"name":"Text.008",
			"primitives":[
				{
					"attributes":{
						"POSITION":0,
						"NORMAL":1,
						"TEXCOORD_0":2
					},
					"indices":3,
					"material":0
				}
			]
		}
	],
	"accessors":[
		{
			"bufferView":0,
			"componentType":5126,
			"count":8982,
			"max":[
				8.444552421569824,
				0.12999999523162842,
				0.9618247747421265
			],
			"min":[
				-4.4203200340271,
				-0.12999999523162842,
				-0.7370072603225708
			],
			"type":"VEC3"
		},
		{
			"bufferView":1,
			"componentType":5126,
			"count":8982,
			"type":"VEC3"
		},
		{
			"bufferView":2,
			"componentType":5126,
			"count":8982,
			"type":"VEC2"
		},
		{
			"bufferView":3,
			"componentType":5123,
			"count":44220,
			"type":"SCALAR"
		}
	],
	"bufferViews":[
		{
			"buffer":0,
			"byteLength":107784,
			"byteOffset":0,
			"target":34962
		},
		{
			"buffer":0,
			"byteLength":107784,
			"byteOffset":107784,
			"target":34962
		},
		{
			"buffer":0,
			"byteLength":71856,
			"byteOffset":215568,
			"target":34962
		},
		{
			"buffer":0,
			"byteLength":88440,
			"byteOffset":287424,
			"target":34963
		}
	],
	"buffers":[
		{
			"byteLength":375864,
			"uri":"data:application/octet-stream;base64,"
		}
	]
}
