{
	"asset":{
		"generator":"Khronos glTF Blender I/O v3.6.27",
		"version":"2.0"
	},
	"scene":0,
	"scenes":[
		{
			"name":"Scene",
			"nodes":[
				0
			]
		}
	],
	"nodes":[
		{
			"mesh":0,
			"name":"Cube.033",
			"rotation":[
				0.7071068286895752,
				0,
				0,
				0.7071068286895752
			],
			"scale":[
				0.14775733649730682,
				0.15948303043842316,
				0.1267511397600174
			],
			"translation":[
				14.862648010253906,
				8.10438346862793,
				-0.18710416555404663
			]
		}
	],
	"materials":[
		{
			"doubleSided":true,
			"emissiveFactor":[
				1,
				1,
				1
			],
			"emissiveTexture":{
				"index":0
			},
			"name":"TAG",
			"normalTexture":{
				"index":1
			},
			"pbrMetallicRoughness":{
				"baseColorTexture":{
					"index":2
				},
				"metallicRoughnessTexture":{
					"index":3
				}
			}
		}
	],
	"meshes":[
		{
			"name":"Cube.049",
			"primitives":[
				{
					"attributes":{
						"POSITION":0,
						"NORMAL":1,
						"TEXCOORD_0":2
					},
					"indices":3,
					"material":0
				}
			]
		}
	],
	"textures":[
		{
			"sampler":0,
			"source":0
		},
		{
			"sampler":0,
			"source":1
		},
		{
			"sampler":0,
			"source":2
		},
		{
			"sampler":0,
			"source":3
		}
	],
	"images":[
		{
			"bufferView":4,
			"mimeType":"image/png",
			"name":"None_Emission"
		},
		{
			"bufferView":5,
			"mimeType":"image/png",
			"name":"None_Normal"
		},
		{
			"bufferView":6,
			"mimeType":"image/png",
			"name":"None_BaseColor.png-None_Alpha.png"
		},
		{
			"bufferView":7,
			"mimeType":"image/png",
			"name":"None_Metallic.png-None_Roughness.png"
		}
	],
	"accessors":[
		{
			"bufferView":0,
			"componentType":5126,
			"count":3440,
			"max":[
				6.319900989532471,
				1,
				7.229397773742676
			],
			"min":[
				-6.3199005126953125,
				-1,
				-9.268643379211426
			],
			"type":"VEC3"
		},
		{
			"bufferView":1,
			"componentType":5126,
			"count":3440,
			"type":"VEC3"
		},
		{
			"bufferView":2,
			"componentType":5126,
			"count":3440,
			"type":"VEC2"
		},
		{
			"bufferView":3,
			"componentType":5123,
			"count":17664,
			"type":"SCALAR"
		}
	],
	"bufferViews":[
		{
			"buffer":0,
			"byteLength":41280,
			"byteOffset":0,
			"target":34962
		},
		{
			"buffer":0,
			"byteLength":41280,
			"byteOffset":41280,
			"target":34962
		},
		{
			"buffer":0,
			"byteLength":27520,
			"byteOffset":82560,
			"target":34962
		},
		{
			"buffer":0,
			"byteLength":35328,
			"byteOffset":110080,
			"target":34963
		},
		{
			"buffer":0,
			"byteLength":3150,
			"byteOffset":145408
		},
		{
			"buffer":0,
			"byteLength":939801,
			"byteOffset":148560
		},
		{
			"buffer":0,
			"byteLength":597382,
			"byteOffset":1088364
		},
		{
			"buffer":0,
			"byteLength":870820,
			"byteOffset":1685748
		}
	],
	"samplers":[
		{
			"magFilter":9729,
			"minFilter":9987
		}
	],
	"buffers":[
		{
			"byteLength":2556568,
			"uri":"data:application/octet-stream;base64,"
		}
	]
}
