{
	"asset":{
		"generator":"Khronos glTF Blender I/O v3.6.27",
		"version":"2.0"
	},
	"extensionsUsed":[
		"KHR_materials_emissive_strength"
	],
	"scene":0,
	"scenes":[
		{
			"name":"Scene",
			"nodes":[
				0
			]
		}
	],
	"nodes":[
		{
			"mesh":0,
			"name":"SCREEN.001",
			"rotation":[
				0.7071068286895752,
				0,
				0,
				0.7071068286895752
			],
			"scale":[
				1.521663784980774,
				1.521663784980774,
				1.521663784980774
			],
			"translation":[
				1.6819367408752441,
				-0.04716366529464722,
				-0.08629035949707031
			]
		}
	],
	"animations":[
		{
			"channels":[
				{
					"sampler":0,
					"target":{
						"node":0,
						"path":"translation"
					}
				},
				{
					"sampler":1,
					"target":{
						"node":0,
						"path":"rotation"
					}
				}
			],
			"name":"SCREEN.001Action",
			"samplers":[
				{
					"input":12,
					"interpolation":"LINEAR",
					"output":13
				},
				{
					"input":14,
					"interpolation":"STEP",
					"output":15
				}
			]
		}
	],
	"materials":[
		{
			"doubleSided":true,
			"name":"Material",
			"pbrMetallicRoughness":{
				"baseColorFactor":[
					0,
					0,
					0,
					1
				],
				"metallicFactor":0,
				"roughnessFactor":0
			}
		},
		{
			"doubleSided":true,
			"emissiveFactor":[
				1,
				1,
				1
			],
			"emissiveTexture":{
				"index":0
			},
			"name":"Material.006",
			"normalTexture":{
				"index":1
			},
			"pbrMetallicRoughness":{
				"baseColorTexture":{
					"index":2
				},
				"metallicRoughnessTexture":{
					"index":3
				}
			}
		},
		{
			"doubleSided":true,
			"emissiveFactor":[
				0.08932332467474347,
				1,
				0.022809921420033602
			],
			"extensions":{
				"KHR_materials_emissive_strength":{
					"emissiveStrength":2.2374885893295726
				}
			},
			"name":"Material.001",
			"pbrMetallicRoughness":{
				"baseColorFactor":[
					0,
					0,
					0,
					1
				]
			}
		}
	],
	"meshes":[
		{
			"name":"SCREEN_Cube.005",
			"primitives":[
				{
					"attributes":{
						"POSITION":0,
						"NORMAL":1,
						"TEXCOORD_0":2
					},
					"indices":3,
					"material":0
				},
				{
					"attributes":{
						"POSITION":4,
						"NORMAL":5,
						"TEXCOORD_0":6
					},
					"indices":7,
					"material":1
				},
				{
					"attributes":{
						"POSITION":8,
						"NORMAL":9,
						"TEXCOORD_0":10
					},
					"indices":11,
					"material":2
				}
			]
		}
	],
	"textures":[
		{
			"sampler":0,
			"source":0
		},
		{
			"sampler":0,
			"source":1
		},
		{
			"sampler":0,
			"source":2
		},
		{
			"sampler":0,
			"source":3
		}
	],
	"images":[
		{
			"bufferView":8,
			"mimeType":"image/png",
			"name":"Material.001_Emission"
		},
		{
			"bufferView":9,
			"mimeType":"image/png",
			"name":"Material.001_Normal"
		},
		{
			"bufferView":10,
			"mimeType":"image/png",
			"name":"Material.001_BaseColor.png-Material.001_Alpha.png"
		},
		{
			"bufferView":11,
			"mimeType":"image/png",
			"name":"Material.001_Metallic.png-Material.001_Roughness.png"
		}
	],
	"accessors":[
		{
			"bufferView":0,
			"componentType":5126,
			"count":1089,
			"max":[
				1.0806567668914795,
				0.4322618544101715,
				0.8000843524932861
			],
			"min":[
				-1.1192874908447266,
				0.17576786875724792,
				-0.8024086952209473
			],
			"type":"VEC3"
		},
		{
			"bufferView":1,
			"componentType":5126,
			"count":1089,
			"type":"VEC3"
		},
		{
			"bufferView":2,
			"componentType":5126,
			"count":1089,
			"type":"VEC2"
		},
		{
			"bufferView":3,
			"componentType":5123,
			"count":6144,
			"type":"SCALAR"
		},
		{
			"bufferView":4,
			"componentType":5126,
			"count":13049,
			"max":[
				1.3212177753448486,
				0.2155168652534485,
				0.9544672966003418
			],
			"min":[
				-1.302606225013733,
				-0.39074215292930603,
				-0.9567916393280029
			],
			"type":"VEC3"
		},
		{
			"bufferView":5,
			"componentType":5126,
			"count":13049,
			"type":"VEC3"
		},
		{
			"bufferView":6,
			"componentType":5126,
			"count":13049,
			"type":"VEC2"
		},
		{
			"bufferView":7,
			"componentType":5123,
			"count":73728,
			"type":"SCALAR"
		},
		{
			"bufferView":12,
			"componentType":5126,
			"count":13234,
			"max":[
				0.9353059530258179,
				0.4421655833721161,
				0.6699447631835938
			],
			"min":[
				-0.9375078678131104,
				0.27371376752853394,
				-0.6129942536354065
			],
			"type":"VEC3"
		},
		{
			"bufferView":13,
			"componentType":5126,
			"count":13234,
			"type":"VEC3"
		},
		{
			"bufferView":14,
			"componentType":5126,
			"count":13234,
			"type":"VEC2"
		},
		{
			"bufferView":15,
			"componentType":5123,
			"count":20532,
			"type":"SCALAR"
		},
		{
			"bufferView":16,
			"componentType":5126,
			"count":144,
			"max":[
				5.958333333333333
			],
			"min":[
				0
			],
			"type":"SCALAR"
		},
		{
			"bufferView":17,
			"componentType":5126,
			"count":144,
			"type":"VEC3"
		},
		{
			"bufferView":18,
			"componentType":5126,
			"count":2,
			"max":[
				5.958333333333333
			],
			"min":[
				0
			],
			"type":"SCALAR"
		},
		{
			"bufferView":19,
			"componentType":5126,
			"count":2,
			"type":"VEC4"
		}
	],
	"bufferViews":[
		{
			"buffer":0,
			"byteLength":13068,
			"byteOffset":0,
			"target":34962
		},
		{
			"buffer":0,
			"byteLength":13068,
			"byteOffset":13068,
			"target":34962
		},
		{
			"buffer":0,
			"byteLength":8712,
			"byteOffset":26136,
			"target":34962
		},
		{
			"buffer":0,
			"byteLength":12288,
			"byteOffset":34848,
			"target":34963
		},
		{
			"buffer":0,
			"byteLength":156588,
			"byteOffset":47136,
			"target":34962
		},
		{
			"buffer":0,
			"byteLength":156588,
			"byteOffset":203724,
			"target":34962
		},
		{
			"buffer":0,
			"byteLength":104392,
			"byteOffset":360312,
			"target":34962
		},
		{
			"buffer":0,
			"byteLength":147456,
			"byteOffset":464704,
			"target":34963
		},
		{
			"buffer":0,
			"byteLength":3150,
			"byteOffset":612160
		},
		{
			"buffer":0,
			"byteLength":1269906,
			"byteOffset":615312
		},
		{
			"buffer":0,
			"byteLength":20722,
			"byteOffset":1885220
		},
		{
			"buffer":0,
			"byteLength":15953,
			"byteOffset":1905944
		},
		{
			"buffer":0,
			"byteLength":158808,
			"byteOffset":1921900,
			"target":34962
		},
		{
			"buffer":0,
			"byteLength":158808,
			"byteOffset":2080708,
			"target":34962
		},
		{
			"buffer":0,
			"byteLength":105872,
			"byteOffset":2239516,
			"target":34962
		},
		{
			"buffer":0,
			"byteLength":41064,
			"byteOffset":2345388,
			"target":34963
		},
		{
			"buffer":0,
			"byteLength":576,
			"byteOffset":2386452
		},
		{
			"buffer":0,
			"byteLength":1728,
			"byteOffset":2387028
		},
		{
			"buffer":0,
			"byteLength":8,
			"byteOffset":2388756
		},
		{
			"buffer":0,
			"byteLength":32,
			"byteOffset":2388764
		}
	],
	"samplers":[
		{
			"magFilter":9729,
			"minFilter":9987
		}
	],
	"buffers":[
		{
			"byteLength":2388796,
			"uri":"data:application/octet-stream;base64,"
		}
	]
}
